<svg viewBox="0 0 24 24" xmlns="http://www.w3.org/2000/svg"><rect width="24" height="24" rx="4" fill="#25D366"/><path d="M17.5 14.4c-.3-.15-1.7-.84-2-.94-.3-.1-.5-.15-.7.15-.2.3-.75.94-.9 1.13-.17.2-.33.22-.63.07-.3-.15-1.25-.46-2.38-1.47-.88-.78-1.47-1.75-1.64-2.05-.17-.3-.02-.46.13-.61.13-.13.3-.34.44-.51.15-.17.2-.3.3-.49.1-.2.05-.37-.03-.52-.07-.15-.68-1.64-.93-2.24-.25-.6-.5-.52-.68-.53h-.58c-.2 0-.52.07-.8.37-.27.3-1.04 1.02-1.04 2.49s1.07 2.89 1.22 3.09c.15.2 2.1 3.2 5.08 4.49.71.31 1.27.49 1.7.63.71.23 1.36.2 1.87.12.57-.09 1.7-.7 1.94-1.37.24-.68.24-1.26.17-1.38-.08-.12-.27-.2-.57-.34z" fill="white"/><path d="M12 2C6.48 2 2 6.48 2 12c0 1.77.47 3.44 1.28 4.88L2 22l5.27-1.38C8.69 21.52 10.3 22 12 22c5.52 0 10-4.48 10-10S17.52 2 12 2zm0 18c-1.5 0-2.94-.4-4.2-1.15l-.3-.18-3.12.82.83-3.04-.2-.31A7.94 7.94 0 014 12c0-4.41 3.59-8 8-8s8 3.59 8 8-3.59 8-8 8z" fill="white" opacity="0.3"/></svg>